<svg width="302" height="339" viewBox="0 0 302 339" fill="none" xmlns="http://www.w3.org/2000/svg">
<g clip-path="url(#clip0_2672_21)">
<path d="M180.697 57.2823H141.582V30.0754L141.246 25.6097L142.102 21.872L155.202 24.8926L162.407 22.1328L167.067 23.7083L172.105 23.1759L174.434 29.6842L172.235 35.7254L166.341 28.1087L166.211 29.8146L180.697 57.2823Z" fill="#DCEBE1" stroke="#FFFEFF" stroke-miterlimit="10"/>
<path d="M186.689 71.4725L181.477 74.7212L179.809 83.9894L171.552 100.255L169.093 96.0065L168.215 91.3778L165.365 91.769L165.463 95.7131L161.53 98.9727L147.076 99.8528L142.753 97.4951L137.346 99.9506L134.399 95.6153L131.452 88.1291L135.19 79.6541L138.234 79.2629V66.1484V64.3774H141.626L141.582 57.2823H180.697L186.689 71.4725Z" fill="#DCEBE1" stroke="#FFFEFF" stroke-miterlimit="10"/>
<path d="M138.234 64.3774H141.626L141.582 57.2823V30.0754L141.246 25.6097L142.102 21.872L127.323 18.1561L123.889 26.7288L111.017 23.4801L109.045 19.536L97.0609 16.4828L96.7575 19.536L92.6293 22.198L89.9856 27.0222V42.9943L98.632 51.7627L105.512 54.9136L108.069 54.0335L111.504 52.056L138.234 66.1484V64.3774Z" fill="#DCEBE1" stroke="#FFFEFF" stroke-miterlimit="10"/>
<path d="M87.0276 2.18394L91.4591 0.412888L95.479 2.2926L93.5178 4.45481L95.2839 7.91L92.1417 13.1254L97.0609 16.4828L96.7575 19.536L92.6293 22.198L89.9856 27.0222L88.8045 20.1227L83.7879 13.4187L85.9549 8.98567L87.0276 2.18394Z" fill="#DCEBE1" stroke="#FFFEFF" stroke-miterlimit="10"/>
<path d="M72.6494 67.2676L98.632 51.7627L89.9856 42.9943V27.0222L88.8045 20.1227L83.7879 13.4187L85.9549 8.98567L87.0276 2.18394L64.133 3.6725L51.8135 9.18125L54.5656 19.5686L30.1324 32.2484L30.0674 36.4534V37.8333L42.3544 46.3517L62.3669 60.2377L69.5072 65.5617V67.5283L72.6494 67.2676Z" fill="#DCEBE1" stroke="#FFFEFF" stroke-miterlimit="10"/>
<path d="M41.0759 6.29106L44.3481 8.65971L51.8135 9.18125L54.5656 19.5686L30.1324 32.2485L30.0674 36.4534H15.2558L16.6969 34.9431L26.3943 27.848L28.4855 19.1774L37.0127 13.6578L41.0759 6.29106Z" fill="#DCEBE1" stroke="#FFFEFF" stroke-miterlimit="10"/>
<path d="M15.6784 59.7487H2.31871L6.44689 49.9916L9.29652 47.0254L15.2558 36.4534H30.0674V37.8333V42.5923H18.9289V51.9583L15.4834 53.9249L15.6784 59.7487Z" fill="#DCEBE1" stroke="#FFFEFF" stroke-miterlimit="10"/>
<path d="M30.0674 37.8333V42.5923H18.9289V51.9583L15.4834 53.9249L15.6784 59.7487H2.31871L4.63743 65.9529L3.98732 76.6009L11.1927 76.0685L18.268 82.6421L21.2802 80.1431H40.0249L37.0127 46.5038L42.3544 46.3517L30.0674 37.8333Z" fill="#DCEBE1" stroke="#FFFEFF" stroke-miterlimit="10"/>
<path d="M20.63 90.6607L18.268 82.6421L21.2801 80.143H40.0249L37.0127 46.5038L42.3544 46.3517L62.3669 60.2377L69.5072 65.5617V67.5283L72.6494 67.2676L71.2083 80.143L59.5497 81.9793L49.3214 85.2715L43.8172 88.4225L40.805 96.9627L32.2886 97.8862L28.6264 90.5303L20.63 90.6607Z" fill="#DCEBE1" stroke="#FFFEFF" stroke-miterlimit="10"/>
<path d="M3.79229 86.5536L9.00397 85.9234L12.7313 86.8796L12.3737 87.6402L8.79811 86.9122L5.81845 87.9335L3.29387 88.1617L3.79229 86.5536Z" fill="#DCEBE1" stroke="#FFFEFF" stroke-miterlimit="10"/>
<path d="M13.2297 89.7698L20.63 90.6607L18.268 82.6421L11.1927 76.0685L3.98732 76.6009L3.19636 80.5994L0.541756 82.5769L3.79229 86.5536L9.00397 85.9234L12.7313 86.8796L12.3737 87.6402L8.79811 86.9122L5.81845 87.9335L3.29387 88.1617V90.6607L8.86312 89.7698H13.2297Z" fill="#DCEBE1" stroke="#FFFEFF" stroke-miterlimit="10"/>
<path d="M8.86312 95.5176L10.0116 93.7791L12.9913 92.7903L13.2297 89.7698H8.86312L3.29387 90.6607L5.68843 92.334L8.86312 95.5176Z" fill="#DCEBE1" stroke="#FFFEFF" stroke-miterlimit="10"/>
<path d="M24.5307 103.851L23.3497 104.047L22.2228 99.3096L17.7913 99.0705L14.8983 102.026L8.86312 95.5176L10.0116 93.7791L12.9913 92.7903L13.2297 89.7698L20.63 90.6607L28.6264 90.5303L32.2886 97.8862L33.0254 103.699L30.7175 106.904L28.258 107.839L26.8819 103.895L24.5307 103.851Z" fill="#DCEBE1" stroke="#FFFEFF" stroke-miterlimit="10"/>
<path d="M20.5 109.164L24.5307 103.851L23.3497 104.047L22.2228 99.3096L17.7912 99.0705L14.8983 102.026L16.2743 106.459L20.5 109.164Z" fill="#DCEBE1" stroke="#FFFEFF" stroke-miterlimit="10"/>
<path d="M33.6213 117.596L20.5 109.164L24.5307 103.851L26.8819 103.895L28.258 107.839L30.7175 106.904L31.2593 108.676L30.3275 110.349L33.8597 112.761L33.6213 117.596Z" fill="#DCEBE1" stroke="#FFFEFF" stroke-miterlimit="10"/>
<path d="M48.758 115.184L41.0326 115.227L33.6213 117.596L33.8597 112.761L30.3275 110.349L31.2593 108.676L30.7175 106.904L33.0254 103.699L32.2886 97.8862L40.805 96.9627L44.3806 99.9506L49.7331 100.45L50.3291 104.438L48.0104 109.317L48.758 115.184Z" fill="#DCEBE1" stroke="#FFFEFF" stroke-miterlimit="10"/>
<path d="M58.3687 94.9308L49.2564 95.4524L49.7331 100.45L44.3806 99.9506L40.805 96.9627L43.8172 88.4225L49.3214 85.2715L59.5498 81.9793L66.43 91.9102L61.901 95.322L58.3687 94.9308Z" fill="#DCEBE1" stroke="#FFFEFF" stroke-miterlimit="10"/>
<path d="M62.4969 111.881L58.3687 94.9308L49.2564 95.4524L49.7331 100.45L50.3291 104.438L48.0104 109.317L48.758 115.184L51.9435 116.021L62.4969 111.881Z" fill="#DCEBE1" stroke="#FFFEFF" stroke-miterlimit="10"/>
<path d="M64.5881 111.022L62.822 98.875L61.901 95.322L58.3687 94.9308L62.4969 111.881L64.5881 111.022Z" fill="#DCEBE1" stroke="#FFFEFF" stroke-miterlimit="10"/>
<path d="M67.6111 110.892L64.5881 111.022L62.822 98.875L61.901 95.322L66.4301 91.9103L68.3262 90.9867L70.3524 92.6926L71.4034 96.7671L67.6111 102.873V110.892Z" fill="#DCEBE1" stroke="#FFFEFF" stroke-miterlimit="10"/>
<path d="M108.069 54.0335L110.778 64.5078L108.687 76.6009L102.923 86.4558L73.4404 86.0538L70.3524 92.6926L68.3262 90.9867L66.43 91.9102L59.5498 81.9793L71.2083 80.143L72.6494 67.2676L98.632 51.7627L105.512 54.9136L108.069 54.0335Z" fill="#DCEBE1" stroke="#FFFEFF" stroke-miterlimit="10"/>
<path d="M110.128 106.818L105.675 100.114L109.207 98.6685L108.687 91.0519L105.144 88.1617L102.923 86.4558L108.687 76.6009L110.778 64.5078L108.069 54.0335L111.504 52.056L138.234 66.1484V79.2629L135.19 79.6541L131.452 88.1291L134.399 95.6153L119.825 104.59L110.128 106.818Z" fill="#00A443" stroke="#FFFEFF" stroke-miterlimit="10"/>
<path d="M87.201 116.412L91.7842 109.577L96.4975 110.892L107.246 92.3666L105.144 88.1617L102.923 86.4558L73.4404 86.0538L70.3524 92.6926L71.4034 96.7671L67.6111 102.873V110.892L74.8814 111.685L78.2837 116.933L87.201 116.412Z" fill="#00A443" stroke="#FFFEFF" stroke-miterlimit="10"/>
<path d="M111.959 126.397L106.986 113.391L110.128 106.818L105.675 100.114L109.207 98.6685L108.687 91.0519L105.144 88.1617L107.246 92.3666L96.4975 110.892L91.7842 109.577L87.201 116.412L90.9932 120.877L91.4591 124.691L96.2699 124.789L102.565 124.984L111.959 126.397Z" fill="#DCEBE1" stroke="#FFFEFF" stroke-miterlimit="10"/>
<path d="M115.145 135.633L111.212 145.096L104.721 146.672L101.709 147.758L98.4369 148.932L95.3814 144.89L98.632 139.87L105.902 138.197L105.707 128.537L102.565 127.549V124.984L111.959 126.397L114.061 120.356L120.346 120.649L115.145 135.633Z" fill="#DCEBE1" stroke="#FFFEFF" stroke-miterlimit="10"/>
<path d="M96.2699 124.789L91.4591 124.691L90.4731 128.733L96.2699 128.831V124.789Z" fill="#DCEBE1" stroke="#FFFEFF" stroke-miterlimit="10"/>
<path d="M88.1111 134.546L90.4732 128.733L96.2699 128.831V124.789L102.565 124.984V127.549L105.707 128.537L105.902 138.197L98.632 139.87L95.3815 144.89L88.1111 134.546Z" fill="#DCEBE1" stroke="#FFFEFF" stroke-miterlimit="10"/>
<path d="M148.853 115.13L133.023 117.596L123.195 115.227L120.346 120.649L114.061 120.356L111.959 126.397L106.986 113.391L110.128 106.818L119.825 104.59L134.399 95.6154L137.346 99.9506L137.248 102.808L148.853 115.13Z" fill="#DCEBE1" stroke="#FFFEFF" stroke-miterlimit="10"/>
<path d="M175.388 114.043L171.455 118.487L160.544 120.551L156.903 116.705L152.385 117.694L148.853 115.13L137.248 102.808L137.346 99.9506L142.753 97.4951L147.076 99.8529L161.53 98.9728L165.463 95.7131L165.365 91.769L168.215 91.3779L169.093 96.0065L171.552 100.255L168.313 105.372L175.388 114.043Z" fill="#DCEBE1" stroke="#FFFEFF" stroke-miterlimit="10"/>
<path d="M201.587 89.6068L199.171 90.5304L192.616 83.9568L184.099 82.5117L179.809 83.9894L181.477 74.7212L186.689 71.4725L189.799 79.8823L195.108 83.3592L201.587 89.6068Z" fill="#FF9C1A" stroke="#FFFEFF" stroke-miterlimit="10"/>
<path d="M201.966 93.6487L200.937 95.4741L196.961 95.2242L199.171 90.5304L201.587 89.6068L202.411 91.1388L200.2 93.1489L201.966 93.6487Z" fill="#DCEBE1" stroke="#FFFEFF" stroke-miterlimit="10"/>
<path d="M197.101 119.172L186.981 120.454L175.388 114.043L168.313 105.372L171.552 100.255L179.809 83.9894L184.099 82.5117L192.616 83.9568L199.171 90.5304L196.961 95.2242L200.937 95.4741L202.801 101.037L217.547 105.764L207.33 115.923L197.101 119.172Z" fill="#00A443" stroke="#FFFEFF" stroke-miterlimit="10"/>
<path d="M196.419 137.501L194.544 135.133V122.822L197.101 119.171L207.33 115.923L217.547 105.764L202.801 101.037L200.937 95.4741L201.966 93.6487L206.051 96.8975L228.556 92.2688L227.667 99.2661L215.478 119.965L196.419 137.501Z" fill="#00A443" stroke="#FFFEFF" stroke-miterlimit="10"/>
<path d="M188.553 147.682L196.419 137.501L194.544 135.133V122.822L197.101 119.171L186.981 120.454L175.388 114.043L171.455 118.487L174.662 125.745L171.065 135.404L188.553 147.682Z" fill="#DCEBE1" stroke="#FFFEFF" stroke-miterlimit="10"/>
<path d="M159.991 135.6L171.065 135.404L174.662 125.745L171.455 118.487L160.544 120.551L161.627 125.017L157.889 129.82L156.903 136.719L159.991 135.6Z" fill="#00A443" stroke="#FFFEFF" stroke-miterlimit="10"/>
<path d="M154.552 140.718L157.369 141.054L159.796 140.196L160.966 139.609L159.991 135.6L156.903 136.719L154.552 140.718Z" fill="#DCEBE1" stroke="#FFFEFF" stroke-miterlimit="10"/>
<path d="M156.416 146.965L160.836 142.825L160.056 141.446L160.966 139.609L157.369 141.054L154.552 140.718L156.416 146.965Z" fill="#DCEBE1" stroke="#FFFEFF" stroke-miterlimit="10"/>
<path d="M174.402 170.815L172.636 164.502L167.814 163.72L160.641 159.482L156.416 146.965L160.836 142.825L160.056 141.446L160.966 139.609L159.991 135.6L171.065 135.404L188.553 147.682L188.65 157.907L192.876 167.262L184.327 170.021L174.402 170.815Z" fill="#DCEBE1" stroke="#FFFEFF" stroke-miterlimit="10"/>
<path d="M101.839 151.789L99.878 151.952L99.2171 151.366L100.203 150.942L100.366 149.758L101.709 147.758L104.721 146.672L111.212 145.096L120.346 120.649L123.195 115.227L133.023 117.596L148.853 115.13L152.385 117.694L156.903 116.705L160.544 120.551L161.627 125.017L157.889 129.82L156.903 136.719L154.552 140.718L156.416 146.965L160.641 159.482L153.273 161.253L153.078 170.717L156.806 173.574L156.708 176.628L138.137 168.739L132.73 168.848L130.368 156.429L124.279 155.538L120.941 158.787L115.535 157.309L113.075 152.387L101.839 151.789Z" fill="#00A443" stroke="#FFFEFF" stroke-miterlimit="10"/>
<path d="M141.842 192.295L137.584 194.012L134.041 193.154L128.082 194.273V207.279H124.875V217.264V230.737L121.982 232.313L115.372 229.683L113.14 231.389L108.492 223.577L106.39 208.854L97.6135 190.59L119.565 190.916L127.486 193.023L136.219 191.73L139.48 191.252L141.842 192.295Z" fill="#DCEBE1" stroke="#FFFEFF" stroke-miterlimit="10"/>
<path d="M99.2171 151.366L98.4261 148.932L101.698 147.747L100.355 149.747L100.192 150.931L99.2062 151.355L99.2171 151.366ZM97.6135 190.59L119.565 190.916L127.497 193.023L136.23 191.731L131.755 187.276L131.462 175.845L137.953 175.356L138.148 168.75L132.741 168.848L130.379 156.429L124.29 155.538L120.952 158.787L115.546 157.309L113.086 152.376L101.85 151.789L99.8889 151.952L103.464 173.368L97.6352 190.579L97.6135 190.59Z" fill="#00A443" stroke="#FFFEFF" stroke-miterlimit="10"/>
<path d="M159.319 184.711L154.454 186.091L147.921 193.089L141.842 192.295L139.48 191.252L136.219 191.73L131.744 187.276L131.452 175.845L137.942 175.346L138.137 168.739L156.708 176.628L156.806 173.574L153.078 170.717L153.273 161.253L160.641 159.482L167.814 163.72L170.079 166.773L167.576 177.323L168.551 179.235L159.027 182.538L159.319 184.711Z" fill="#DCEBE1" stroke="#FFFEFF" stroke-miterlimit="10"/>
<path d="M174.987 189.34L172.04 185.526L172.766 180.995L169.949 180.735L168.551 179.235L167.576 177.323L170.079 166.773L167.814 163.72L172.636 164.502L174.402 170.815L173.026 174.031L174.142 177.388L177.479 181.658L176.764 186.711L174.987 189.34Z" fill="#DCEBE1" stroke="#FFFEFF" stroke-miterlimit="10"/>
<path d="M162.256 208.691L166.081 203.965L167.662 188.536L158.984 184.462L158.68 182.267L168.313 178.931L169.71 180.441L172.56 180.713L171.834 185.287L174.814 189.134L176.601 186.483L177.327 181.376L173.947 177.062L172.82 173.672L174.218 170.423L184.24 169.63L192.876 166.849L193.613 181.474L174.012 199.282L176.526 215.276L167.662 219.915L167.532 224.696L164.683 224.761L164.163 221.578L164.293 215.537L162.256 208.691Z" fill="#00A443" stroke="#FFFEFF" stroke-miterlimit="10"/>
<path d="M155.603 207.8L162.559 208.713L166.341 204.03L167.912 188.753L159.319 184.711L154.454 186.091L147.921 193.089L141.842 192.295L151.269 204.78L155.603 207.8Z" fill="#DCEBE1" stroke="#FFFEFF" stroke-miterlimit="10"/>
<path d="M127.356 220.415L124.875 217.264V207.279H128.082V194.273L134.041 193.154L137.584 194.012L141.842 192.295L151.269 204.78L155.603 207.8L141.972 220.752L135.287 219.828L130.769 224.49L127.421 224.62L127.356 220.415Z" fill="#DCEBE1" stroke="#FFFEFF" stroke-miterlimit="10"/>
<path d="M162.407 225.728L161.421 223.023L163.339 220.698L164.932 221.143L165.452 224.305L165.008 226.217L162.407 225.728Z" fill="#DCEBE1" stroke="#FFFEFF" stroke-miterlimit="10"/>
<path d="M165.495 224.272L165.051 226.217L162.418 225.717L161.421 222.979L163.361 220.643L164.965 221.089L165.095 215.048L163.058 208.202L156.026 207.29L142.265 220.361L135.515 219.437L130.953 224.153L127.583 224.283L127.518 220.035L125.005 216.851V230.455L122.09 232.052L115.405 229.401L113.151 231.128L119.305 243.2L117.983 246.579L123.943 253.609L142.471 251.349L156.827 243.254L166.557 230.846L168.345 224.207L165.495 224.272ZM151.8 238.604L148.723 235.018L153.88 231.041L156.264 234.029L151.8 238.604Z" fill="#DCEBE1" stroke="#FFFEFF" stroke-miterlimit="10"/>
<path d="M214.828 217.199L224.265 187.243L222.423 172.521L212.596 184.744L205.13 187.113L204.61 202.216L202.638 209.05L204.87 218.644L214.828 217.199Z" fill="#DCEBE1" stroke="#FFFEFF" stroke-miterlimit="10"/>
</g>
<g clip-path="url(#clip1_2672_21)">
<path d="M246 338.5C276.652 338.5 301.5 313.652 301.5 283C301.5 252.348 276.652 227.5 246 227.5C215.348 227.5 190.5 252.348 190.5 283C190.5 313.652 215.348 338.5 246 338.5Z" fill="#FFFEFF" stroke="#B0A9A3" stroke-miterlimit="10"/>
<mask id="mask0_2672_21" style="mask-type:luminance" maskUnits="userSpaceOnUse" x="186" y="223" width="120" height="120">
<path d="M246 343C279.137 343 306 316.137 306 283C306 249.863 279.137 223 246 223C212.863 223 186 249.863 186 283C186 316.137 212.863 343 246 343Z" fill="white"/>
</mask>
<g mask="url(#mask0_2672_21)">
<path d="M258.731 257.106L267.948 275.424L280.595 290.666L272.563 315.595L254.127 316.417L248.338 304.839L244.792 307.317L236.045 301.293L204.728 309.325L200.595 282.025L216.904 273.16L226.944 263.472L231.794 264.177L237.7 258.74L245.497 260.044L244.194 265.48L254.48 271.269L258.731 257.085V257.106ZM265.588 329.074L268.782 327.536L269.604 323.285L262.629 322.463L265.588 329.085V329.074Z" fill="#DCEBE1"/>
<path d="M261.454 250.922L259.404 253.838L255.227 253.763V240.69L264.37 244.546L268.312 247.857L267.681 249.117L274.304 256.284L269.262 255.728L264.691 250.687L261.465 250.922H261.454ZM269.882 246.821L271.099 247.611L274.603 247.771L277.316 246.351L277.924 243.99L276.621 243.947C276.621 243.947 274.773 246.532 274.496 246.564C274.218 246.607 270.533 246.425 270.533 246.425L269.86 246.821H269.882Z" fill="#00A443" stroke="#FFFEFF" stroke-miterlimit="10"/>
<path d="M255.227 240.69V253.763L250.261 251.242L249.086 246.671L241.834 243.445L237.892 241.395L240.178 239.974L235.607 238.639L237.113 236.663L240.103 236.514L241.438 237.144L242.624 241.16L248.605 238.799L255.227 240.69Z" fill="#DCEBE1"/>
</g>
</g>
<defs>
<clipPath id="clip0_2672_21">
<rect width="229" height="254" fill="white"/>
</clipPath>
<clipPath id="clip1_2672_21">
<rect width="112" height="112" fill="white" transform="translate(190 227)"/>
</clipPath>
</defs>
</svg>
